<?xml version="1.0" encoding="UTF-8"?>
<svg width="20px" height="20px" viewBox="0 0 20 20" version="1.1" xmlns="http://www.w3.org/2000/svg" xmlns:xlink="http://www.w3.org/1999/xlink">
    <!-- Generator: Sketch 53.2 (72643) - https://sketchapp.com -->
    <title>Facebook-color</title>
    <desc>Created with Sketch.</desc>
    <g id="iGive" stroke="none" stroke-width="1" fill="none" fill-rule="evenodd">
        <g id="Collectes-personnelles" transform="translate(-989.000000, -1642.000000)" fill="#FFFFFF">
            <g id="bouton_fb" transform="translate(967.000000, 1632.000000)">
                <g id="Group-2" transform="translate(22.000000, 5.000000)">
                    <path d="M10.682648,25 L1.10384647,25 C0.494030274,25 0,24.5056631 0,23.8960845 L0,6.1038379 C0,5.49410404 0.494107878,5 1.10384647,5 L18.8962311,5 C19.5058145,5 20,5.49410404 20,6.1038379 L20,23.8960845 C20,24.5057407 19.5057369,25 18.8962311,25 L13.7997105,25 L13.7997105,17.2548978 L16.3993838,17.2548978 L16.788648,14.236494 L13.7997105,14.236494 L13.7997105,12.3094339 C13.7997105,11.4355364 14.0423798,10.840004 15.2955374,10.840004 L16.8938797,10.8393056 L16.8938797,8.13962106 C16.6174525,8.10283681 15.6686598,8.02065428 14.5648133,8.02065428 C12.2603476,8.02065428 10.682648,9.4273026 10.682648,12.0105037 L10.682648,14.236494 L8.07630075,14.236494 L8.07630075,17.2548978 L10.682648,17.2548978 L10.682648,25 L10.682648,25 Z" id="Facebook"></path>
                </g>
            </g>
        </g>
    </g>
</svg>