<?xml version="1.0" encoding="utf-8"?>
<!-- Generator: Adobe Illustrator 23.0.1, SVG Export Plug-In . SVG Version: 6.00 Build 0)  -->
<svg version="1.1" id="Calque_1" xmlns="http://www.w3.org/2000/svg" xmlns:xlink="http://www.w3.org/1999/xlink" x="0px" y="0px"
	 viewBox="0 0 30 26.2" style="enable-background:new 0 0 30 26.2;" xml:space="preserve">
<style type="text/css">
	.st0{fill:#FFFFFF;}
</style>
<g>
	<path class="st0" d="M22.5,5.3h-20c-1.1,0-1.9,0.9-1.9,1.9v12.8c0,1.1,0.9,1.9,1.9,1.9h2c0.2,0,0.4,0.1,0.4,0.3l1.4,2.5
		c0.3,0.4,0.7,0.7,1.2,0.7c0,0,0,0,0,0c0.5,0,0.9-0.2,1.2-0.7l1.6-2.5c0.1-0.1,0.3-0.2,0.4-0.2h11.7c1.1,0,1.9-0.9,1.9-1.9V7.2
		C24.4,6.2,23.6,5.3,22.5,5.3z M23.5,20.1c0,0.5-0.4,1-1,1H10.8c-0.5,0-0.9,0.2-1.2,0.7l-1.6,2.5c-0.1,0.2-0.4,0.2-0.4,0.2
		c-0.1,0-0.3,0-0.4-0.3l-1.4-2.5C5.5,21.3,5.1,21,4.5,21h-2c-0.5,0-1-0.4-1-1V7.2c0-0.5,0.4-1,1-1h20c0.5,0,1,0.4,1,1V20.1z"/>
	<path class="st0" d="M27.5,1h-20C6.4,1,5.6,1.8,5.6,2.9v0.6c0,0.3,0.2,0.5,0.5,0.5c0.3,0,0.5-0.2,0.5-0.5V2.9c0-0.5,0.4-1,1-1h20
		c0.5,0,1,0.4,1,1v12.8c0,0.5-0.4,1-1,1h-0.8c-0.3,0-0.5,0.2-0.5,0.5s0.2,0.5,0.5,0.5h0.8c1.1,0,1.9-0.9,1.9-1.9V2.9
		C29.4,1.8,28.5,1,27.5,1z"/>
</g>
</svg>
