<?xml version="1.0" encoding="UTF-8"?>
<svg width="67px" height="73px" viewBox="0 0 67 73" version="1.1" xmlns="http://www.w3.org/2000/svg" xmlns:xlink="http://www.w3.org/1999/xlink">
    <!-- Generator: Sketch 53.2 (72643) - https://sketchapp.com -->
    <title>people</title>
    <desc>Created with Sketch.</desc>
    <defs>
        <polygon id="path-1" points="0 0.6787 31.4475511 0.6787 31.4475511 60.9997 0 60.9997"></polygon>
    </defs>
    <g id="iGive" stroke="none" stroke-width="1" fill="none" fill-rule="evenodd">
        <g id="Exemple-page-événement---Etape-du-Tour" transform="translate(-250.000000, -458.000000)">
            <g id="LV" transform="translate(-2.000000, 34.000000)">
                <g id="02" transform="translate(248.000000, 424.000000)">
                    <g id="chiffre_2">
                        <g id="Group-2" transform="translate(4.000000, 0.000000)">
                            <g id="people">
                                <g id="Group-3" transform="translate(0.000000, 12.000000)">
                                    <mask id="mask-2" fill="white">
                                        <use xlink:href="#path-1"></use>
                                    </mask>
                                    <g id="Clip-2"></g>
                                    <path d="M24.7147,3.3687 C24.4837,2.6767 23.9457,2.0617 23.1777,1.8317 L20.1037,0.6787 C18.8747,1.5247 17.3377,1.9857 15.7237,1.9857 C14.1107,1.9857 12.6507,1.5247 11.4207,0.6787 L8.3467,1.8317 C7.6557,2.0617 7.1177,2.6767 6.8107,3.3687 L0.0477,23.7317 C-0.1053,24.1157 0.1247,24.5767 0.5087,24.7307 L2.5837,25.4987 C2.9677,25.6527 3.4287,25.4217 3.5827,25.0377 L9.0387,10.8227 L7.1947,26.1907 C7.1177,26.8057 7.5787,27.2657 8.1937,27.2657 L8.4237,27.2657 L8.4237,27.3437 L9.2697,60.0007 C9.2697,60.5387 9.7307,60.9997 10.2677,60.9997 L13.0347,60.9997 C13.5717,60.9997 14.0337,60.5387 14.0337,60.0007 L14.8017,30.4937 L16.6457,30.4937 L17.4147,60.0007 C17.4147,60.5387 17.8757,60.9997 18.4137,60.9997 L21.1797,60.9997 C21.7177,60.9997 22.1787,60.5387 22.1787,60.0007 L23.0237,27.3437 L23.0237,27.2657 L23.2547,27.2657 C23.8687,27.2657 24.3297,26.7287 24.2537,26.1907 L22.4087,10.8227 L27.8647,25.0377 C28.0187,25.4217 28.4797,25.6527 28.8637,25.4987 L30.9387,24.7307 C31.3227,24.5767 31.5527,24.1927 31.3997,23.7317 L24.7147,3.3687 Z" id="Fill-1" fill="#E40520" mask="url(#mask-2)"></path>
                                </g>
                                <path d="M15.8006,0 C19.0686,0 21.7176,2.649 21.7176,5.917 C21.7176,9.185 19.0686,11.833 15.8006,11.833 C12.5326,11.833 9.8836,9.185 9.8836,5.917 C9.8836,2.649 12.5326,0 15.8006,0" id="Fill-4" fill="#E40520"></path>
                                <path d="M66.0555,35.5781 L58.6015,15.3691 C58.3705,14.7541 57.9095,14.2161 57.2955,13.9851 L54.6065,12.8321 C53.4525,13.5241 52.0705,13.9091 50.6105,13.9091 C49.1505,13.9091 47.7675,13.5241 46.6145,12.8321 L43.8485,13.9851 C43.2335,14.2161 42.7725,14.7541 42.5415,15.3691 L35.0875,35.5781 C34.9345,35.9621 35.1645,36.4231 35.5495,36.5771 L37.3935,37.2681 C37.7775,37.4221 38.2395,37.2681 38.3925,36.8841 L44.3855,22.4381 L43.6185,33.9641 L38.3155,51.0231 C38.1615,51.5611 38.5455,52.0991 39.0835,52.0991 L43.8485,52.0991 L44.3095,71.8481 C44.3095,72.3851 44.7705,72.7691 45.2315,72.7691 L47.8435,72.7691 C48.3815,72.7691 48.7665,72.3851 48.7665,71.8481 L49.2275,52.0991 L51.9165,52.0991 L52.3775,71.8481 C52.3775,72.3851 52.8385,72.7691 53.2995,72.7691 L55.9115,72.7691 C56.4505,72.7691 56.8345,72.3851 56.8345,71.8481 L57.2955,52.0991 L62.0595,52.0991 C62.5975,52.0991 63.0585,51.5611 62.8275,51.0231 L57.5265,33.9641 L56.7575,22.4381 L62.7505,36.8841 C62.9055,37.2681 63.3665,37.4221 63.7495,37.2681 L65.5945,36.5771 C66.0555,36.4231 66.2085,35.9621 66.0555,35.5781" id="Fill-6" fill="#E40520"></path>
                                <path d="M50.533,0 C53.802,0 56.45,2.649 56.45,5.917 C56.45,9.185 53.802,11.833 50.533,11.833 C47.265,11.833 44.617,9.185 44.617,5.917 C44.617,2.649 47.265,0 50.533,0" id="Fill-8" fill="#E40520"></path>
                            </g>
                        </g>
                    </g>
                </g>
            </g>
        </g>
    </g>
</svg>